PathFileType	4	(X/Y/Z)	/Users/itak/Documents/Research/Walk-IL/dataset/trc/00290_00010.trc
DataRate	CameraRate	NumFrames	NumMarkers	Units	OrigDataRate	OrigDataStartFrame	OrigNumFrames
100.000000	100.000000	4	53	mm	100.000000	84	674
Frame#	Time	RPSI			LPSI			L3			STRN			T10			C7			CLAV			RBAK			LBAK			LSHO			LUPA			LAEL			LAOL			LWTS			LWPS			LFRA			LHPS			RSHO			RUPA			RAEL			RAOL			RWTS			RWPS			RFRA			RIFD			RHTS			RHPS			RBHD			LFHD			RFHD			LBHD			LHIP			RHIP			RASI			LASI			LKNE			LTHI			LANK			LTIP			LTOE			LMT1			LMT5			LHEE			RKNE			RTHI			RANK			RTIP			RTOE			RMT1			RMT5			RHEE			LIFD			LHTS			
		X1	Y1	Z1	X2	Y2	Z2	X3	Y3	Z3	X4	Y4	Z4	X5	Y5	Z5	X6	Y6	Z6	X7	Y7	Z7	X8	Y8	Z8	X9	Y9	Z9	X10	Y10	Z10	X11	Y11	Z11	X12	Y12	Z12	X13	Y13	Z13	X14	Y14	Z14	X15	Y15	Z15	X16	Y16	Z16	X17	Y17	Z17	X18	Y18	Z18	X19	Y19	Z19	X20	Y20	Z20	X21	Y21	Z21	X22	Y22	Z22	X23	Y23	Z23	X24	Y24	Z24	X25	Y25	Z25	X26	Y26	Z26	X27	Y27	Z27	X28	Y28	Z28	X29	Y29	Z29	X30	Y30	Z30	X31	Y31	Z31	X32	Y32	Z32	X33	Y33	Z33	X34	Y34	Z34	X35	Y35	Z35	X36	Y36	Z36	X37	Y37	Z37	X38	Y38	Z38	X39	Y39	Z39	X40	Y40	Z40	X41	Y41	Z41	X42	Y42	Z42	X43	Y43	Z43	X44	Y44	Z44	X45	Y45	Z45	X46	Y46	Z46	X47	Y47	Z47	X48	Y48	Z48	X49	Y49	Z49	X50	Y50	Z50	X51	Y51	Z51	X52	Y52	Z52	X53	Y53	Z53	

85	0.84	6.678919792175293	947.1402587890625	1047.259399414062	-44.68719482421875	953.1195678710938	1213.361206054688	-42.23195266723633	1022.443725585938	1141.6064453125	-293.318359375	1177.326904296875	1041.552001953125	-49.22543716430664	1140.516357421875	1154.011474609375	-117.8329315185547	1381.070434570312	1140.218994140625	-246.9521331787109	1283.109497070312	1064.88232421875	-26.82559394836426	1246.719116210938	1106.731811523438	-151.0305938720703	1345.267944335938	1241.151977539062	-255.8895721435547	1343.138427734375	1242.631591796875	-261.6842956542969	1225.522583007812	1321.94873046875	-274.3996887207031	1023.413818359375	1325.813354492188	-189.5552825927734	1004.479675292969	1311.985595703125	-382.0203552246094	875.2003784179688	1189.179321289062	-387.4984741210938	836.6506958007812	1249.271362304688	-315.5860900878906	934.73095703125	1302.4150390625	-421.4194641113281	764.592041015625	1212.083374023438	-94.51888275146484	1351.925415039062	972.3327026367188	-43.77864074707031	1298.977172851562	925.107666015625	59.18179321289062	1052.4814453125	926.9166259765625	22.40586280822754	1042.309448242188	1013.715881347656	25.59151840209961	805.2379150390625	911.7586059570312	107.4507675170898	826.95751953125	894.3215942382812	71.95386505126953	985.2664794921875	907.3742065429688	84.73287200927734	629.3407592773438	928.1480712890625	58.45773696899414	690.723876953125	892.010986328125	126.7704925537109	714.4818115234375	893.5892944335938	-100.6593627929688	1528.482055664062	1050.22705078125	-309.0087585449219	1572.3984375	1061.78662109375	-261.7939147949219	1561.26806640625	983.2086181640625	-176.6477508544922	1536.399658203125	1173.481811523438	-131.4222106933594	902.9420776367188	1291.701049804688	-68.32340240478516	895.5590209960938	922.92041015625	-199.53173828125	899.091796875	964.5680541992188	-256.3603820800781	897.8490600585938	1212.127075195312	-70.80953979492188	452.0131530761719	1287.53955078125	-109.9128494262695	589.59423828125	1294.272094726562	200.2913055419922	84.41829681396484	1341.69482421875	64.03183746337891	263.6828918457031	1323.791137695312	19.50261306762695	36.7924690246582	1244.270751953125	95.71395111083984	36.95694732666016	1217.162353515625	84.08551025390625	46.77075576782227	1328.312255859375	258.2882995605469	96.99413299560547	1295.183227539062	-293.3292846679688	483.1767883300781	903.2852783203125	-177.740234375	717.2820434570312	889.7432250976562	-368.3734436035156	42.77129745483398	930.278076171875	-343.2850646972656	366.7957153320312	902.1492919921875	-559.0875244140625	88.57203674316406	911.2574462890625	-524.6517333984375	67.12384796142578	967.5050048828125	-456.8589782714844	53.65678405761719	871.7787475585938	-339.2376403808594	29.45039749145508	994.1051635742188	-461.634765625	721.9319458007812	1122.5693359375	-446.77685546875	800.3218383789062	1162.091796875	
86	0.85	-2.453832149505615	947.7052612304688	1042.731567382812	-55.15967178344727	953.3833618164062	1208.429809570312	-52.10659027099609	1022.342834472656	1136.718872070312	-301.3753051757812	1178.311889648438	1034.517700195312	-58.32556915283203	1140.208374023438	1149.2158203125	-125.5803604125977	1381.132080078125	1134.97998046875	-254.64794921875	1283.860229492188	1058.39208984375	-34.88395690917969	1246.277587890625	1102.139526367188	-159.8680572509766	1345.447631835938	1235.578735351562	-264.8100280761719	1343.867919921875	1236.244262695312	-271.0509948730469	1225.990844726562	1315.312377929688	-282.9107055664062	1024.000244140625	1318.720458984375	-198.2351837158203	1004.899475097656	1303.997680664062	-392.8601989746094	877.1146240234375	1182.7470703125	-397.9615478515625	838.5215454101562	1242.663452148438	-324.8140258789062	935.7756958007812	1295.467407226562	-432.7343139648438	766.8787231445312	1205.599975585938	-100.9752960205078	1351.890625	967.2439575195312	-50.22945404052734	1298.5966796875	920.3380126953125	51.38835906982422	1051.576049804688	922.8150634765625	13.72347354888916	1041.490844726562	1009.258911132812	19.23375129699707	804.2919311523438	907.7649536132812	101.1514358520508	826.5487670898438	891.3265991210938	64.52839660644531	984.5523071289062	903.4495849609375	80.09253692626953	628.9118041992188	925.9332275390625	53.53200912475586	689.8480834960938	889.181884765625	121.5703430175781	714.2945556640625	891.3522338867188	-107.1749496459961	1528.816772460938	1044.709838867188	-315.607177734375	1573.24609375	1055.41650390625	-268.0054931640625	1561.923828125	977.0413208007812	-183.6113586425781	1536.99853515625	1167.689575195312	-142.3513336181641	903.123779296875	1286.18701171875	-76.70487976074219	896.501708984375	917.7484130859375	-208.2591094970703	899.5684204101562	958.4329833984375	-266.5194091796875	897.7427978515625	1205.723754882812	-79.80674743652344	452.7149658203125	1284.192016601562	-119.5529937744141	590.0991821289062	1290.038208007812	197.0059051513672	89.56076049804688	1342.546997070312	57.86737442016602	266.7663269042969	1322.773681640625	19.17602157592773	36.74404144287109	1244.36865234375	94.84153747558594	38.09560012817383	1217.4423828125	82.36977386474609	47.33016586303711	1328.493774414062	254.6376037597656	103.8715667724609	1296.25390625	-303.1601257324219	484.3505249023438	898.0487670898438	-187.0098724365234	718.4566650390625	884.6373291015625	-369.09130859375	42.66048431396484	930.0680541992188	-351.7201232910156	366.9076232910156	898.175537109375	-561.1328125	83.29067993164062	910.1302490234375	-526.3206176757812	63.38274002075195	966.7012939453125	-457.7080078125	50.86269378662109	871.3311157226562	-339.6879577636719	30.82055473327637	994.0311889648438	-474.1430053710938	724.6432495117188	1116.540893554688	-458.4176940917969	802.8106689453125	1155.983764648438	
87	0.86	-11.76151084899902	948.5032348632812	1038.046997070312	-65.77964019775391	953.8533325195312	1203.321044921875	-62.04250335693359	1022.601257324219	1131.758911132812	-309.5003356933594	1179.650512695312	1027.273193359375	-67.51779174804688	1140.275390625	1144.363037109375	-133.4397277832031	1381.513916015625	1129.690551757812	-262.3708190917969	1284.93701171875	1051.770141601562	-43.07067108154297	1246.1669921875	1097.502075195312	-168.9065399169922	1345.985229492188	1229.907836914062	-273.9179077148438	1344.955078125	1229.666870117188	-280.6848754882812	1226.90478515625	1308.541870117188	-291.3905334472656	1024.9990234375	1311.688110351562	-206.8840789794922	1005.818237304688	1296.015625	-403.4396667480469	879.1543579101562	1176.39111328125	-408.1327819824219	840.5687255859375	1236.206909179688	-333.9137573242188	937.1339111328125	1288.617797851562	-443.7087097167969	769.2960205078125	1199.375610351562	-107.4922180175781	1352.187255859375	962.122314453125	-56.75816345214844	1298.546264648438	915.5425415039062	43.32921981811523	1050.939086914062	918.5148315429688	4.860006809234619	1040.964965820312	1004.629699707031	12.30102920532227	803.6123046875	903.5755615234375	94.27512359619141	826.3583374023438	888.0211791992188	56.74457168579102	984.0956420898438	899.3037719726562	74.83045959472656	628.7642211914062	923.49169921875	47.91660308837891	689.2288208007812	886.150390625	115.6880722045898	714.3233032226562	888.8031616210938	-113.7028961181641	1529.358642578125	1039.132446289062	-322.1790161132812	1574.409912109375	1048.8798828125	-274.1746826171875	1562.841674804688	970.7392578125	-190.6277313232422	1537.90380859375	1161.804321289062	-153.4451599121094	903.55078125	1280.512939453125	-85.27203369140625	897.7728271484375	912.4022216796875	-217.1410217285156	900.4573364257812	952.1123657226562	-276.8074951171875	897.9046630859375	1199.115966796875	-89.65068054199219	453.4241333007812	1280.673095703125	-129.7750091552734	590.708740234375	1285.629638671875	193.1903381347656	95.14823913574219	1343.296630859375	50.99578094482422	270.09814453125	1321.666259765625	18.8231029510498	36.70913314819336	1244.467163085938	93.82742309570312	39.29202651977539	1217.7041015625	80.42961120605469	47.99553298950195	1328.646362304688	250.2743682861328	111.3320770263672	1297.170532226562	-313.0042724609375	485.537109375	892.85986328125	-196.5048522949219	719.9044189453125	879.3447875976562	-369.8227844238281	42.71202850341797	929.7535400390625	-360.2933654785156	367.0890502929688	894.3489379882812	-563.129150390625	78.35531616210938	909.2890625	-527.8543701171875	59.98855590820312	966.091064453125	-458.6177978515625	48.42185592651367	871.0313110351562	-340.1483459472656	32.14941787719727	993.7730102539062	-486.3195190429688	727.3182983398438	1110.861450195312	-469.8068542480469	805.3499755859375	1150.14453125	
88	0.87	-21.2327709197998	949.4769897460938	1033.141967773438	-76.47526550292969	954.5042724609375	1198.001342773438	-71.97158050537109	1023.176940917969	1126.707641601562	-317.6602478027344	1181.301635742188	1019.867065429688	-76.77276611328125	1140.6826171875	1139.436157226562	-141.3675384521484	1382.182861328125	1124.358764648438	-270.0931701660156	1286.3037109375	1045.051391601562	-51.36536026000977	1246.34814453125	1092.802490234375	-178.0856018066406	1346.850341796875	1224.153686523438	-283.1495361328125	1346.361328125	1222.91650390625	-290.5581970214844	1228.238525390625	1301.660278320312	-299.9177551269531	1026.391235351562	1304.767578125	-215.5664672851562	1007.196716308594	1288.166381835938	-413.7638549804688	881.3104858398438	1170.079223632812	-418.0626220703125	842.7848510742188	1229.898315429688	-342.9485778808594	938.788818359375	1281.895141601562	-454.3660583496094	771.8111572265625	1193.389404296875	-114.0571670532227	1352.78759765625	956.9714965820312	-63.34964752197266	1298.81005859375	910.7196044921875	35.06048583984375	1050.572998046875	914.04052734375	-4.140421390533447	1040.73046875	999.8500366210938	4.797105312347412	803.2025756835938	899.1719970703125	86.81783294677734	826.3590087890625	884.39208984375	48.64604187011719	983.888427734375	894.95458984375	68.88298034667969	628.8758544921875	920.78125	41.54612731933594	688.8465576171875	882.8869018554688	109.0824127197266	714.5278930664062	885.9046020507812	-120.2380676269531	1530.085815429688	1033.5146484375	-328.716796875	1575.832397460938	1042.19189453125	-280.2981262207031	1563.97998046875	964.3169555664062	-197.7097778320312	1539.065185546875	1155.835205078125	-164.6246948242188	904.2084350585938	1274.661865234375	-94.04164123535156	899.2546997070312	906.8593139648438	-226.1716918945312	901.693115234375	945.6541748046875	-287.2020263671875	898.350830078125	1192.343505859375	-100.3927001953125	454.1163024902344	1277.013671875	-140.5926513671875	591.4154663085938	1281.082641601562	188.7688140869141	101.1608352661133	1343.8994140625	43.36050415039062	273.6437072753906	1320.43896484375	18.4392261505127	36.69153213500977	1244.563232421875	92.69581604003906	40.59763717651367	1217.909057617188	78.24272155761719	48.77628326416016	1328.779174804688	245.1112060546875	119.3699264526367	1297.874267578125	-322.6974792480469	486.5627136230469	887.8190307617188	-206.1601715087891	721.4454345703125	873.8831176757812	-370.5857849121094	42.91961288452148	929.3844604492188	-368.8471069335938	367.1810913085938	890.7302856445312	-565.1166381835938	73.70162963867188	908.6790771484375	-529.3035888671875	56.91718292236328	965.655029296875	-459.5993041992188	46.33700942993164	870.8831176757812	-340.6713562011719	33.38310241699219	993.4051513671875	-498.1122436523438	729.9113159179688	1105.463012695312	-480.9104919433594	807.9137573242188	1144.507446289062	
